<?xml version="1.0" encoding="UTF-8"?>
<svg id="Capa_2" data-name="Capa 2" xmlns="http://www.w3.org/2000/svg" viewBox="0 0 196.12 75.37">
  <defs>
    <style>
      .cls-1 {
        stroke-width: 0px;
      }
    </style>
  </defs>
  <g id="Capa_1-2" data-name="Capa 1">
    <g>
      <g>
        <path class="cls-1" d="m43.82,75.37c-2.99,0-5.62-.59-7.89-1.76-2.27-1.18-3.99-2.82-5.17-4.93-1.18-2.11-1.68-4.63-1.52-7.57l.8-12.17c.16-2.19-.28-3.84-1.32-4.97-1.04-1.12-2.79-1.68-5.25-1.68h-9.53v-9.21h9.53c2.46,0,4.2-.56,5.25-1.68,1.04-1.12,1.48-2.75,1.32-4.89l-.8-12.57c-.16-2.88.35-5.37,1.52-7.45,1.17-2.08,2.9-3.68,5.17-4.81,2.27-1.12,4.9-1.68,7.89-1.68h5.53v9.21h-4.08c-1.92,0-3.43.45-4.53,1.36-1.1.91-1.59,2.35-1.48,4.32l.8,12.49c.21,3.15-.72,5.69-2.8,7.61-2.08,1.92-4.99,2.88-8.73,2.88v-.56c3.68,0,6.58.97,8.69,2.92,2.11,1.95,3.06,4.53,2.84,7.73l-.8,12.49c-.05,1.76.47,3.14,1.56,4.12,1.09.99,2.58,1.48,4.45,1.48h4.08v9.29h-5.53Z"/>
        <rect class="cls-1" y="5.83" width="9.18" height="54.87"/>
        <rect class="cls-1" y="65.03" width="9.18" height="9.37"/>
        <g>
          <path class="cls-1" d="m62.16,59.12c-2.76,0-5.16-.52-7.19-1.57-2.03-1.04-3.61-2.52-4.73-4.44-1.12-1.91-1.69-4.17-1.69-6.77v-8.04c0-2.6.56-4.86,1.69-6.77,1.12-1.91,2.7-3.39,4.73-4.44,2.03-1.04,4.43-1.57,7.19-1.57s5.21.52,7.22,1.57c2.01,1.05,3.58,2.52,4.7,4.44,1.12,1.91,1.69,4.15,1.69,6.71v8.1c0,2.6-.56,4.86-1.69,6.77-1.12,1.91-2.69,3.39-4.7,4.44-2.01,1.04-4.42,1.57-7.22,1.57Zm0-6.45c1.97,0,3.5-.54,4.58-1.63,1.08-1.08,1.63-2.65,1.63-4.7v-8.04c0-2.09-.54-3.67-1.63-4.73-1.09-1.06-2.61-1.6-4.58-1.6s-3.45.53-4.55,1.6c-1.1,1.06-1.66,2.64-1.66,4.73v8.04c0,2.05.55,3.62,1.66,4.7,1.1,1.08,2.62,1.63,4.55,1.63Z"/>
          <path class="cls-1" d="m89.72,59.18c-3.23,0-5.85-1.12-7.84-3.37-1.99-2.25-2.99-5.26-2.99-9.05v-8.81c0-3.82.99-6.86,2.96-9.11,1.97-2.25,4.59-3.37,7.87-3.37,2.68,0,4.81.76,6.39,2.28,1.58,1.52,2.37,3.6,2.37,6.24l-1.66-1.72h1.72l-.24-7.75v-9.11h7.39v43.18h-7.22v-6.21h-1.66l1.66-1.72c0,2.64-.79,4.72-2.37,6.24-1.58,1.52-3.71,2.28-6.39,2.28Zm2.6-6.39c1.89,0,3.36-.56,4.41-1.69,1.04-1.12,1.57-2.69,1.57-4.7v-8.16c0-2.01-.52-3.58-1.57-4.7-1.04-1.12-2.51-1.69-4.41-1.69s-3.37.55-4.44,1.66c-1.06,1.1-1.6,2.68-1.6,4.73v8.16c0,2.05.53,3.63,1.6,4.73,1.06,1.1,2.54,1.66,4.44,1.66Z"/>
          <path class="cls-1" d="m122.91,59.18c-2.76,0-5.17-.53-7.22-1.6-2.05-1.06-3.64-2.55-4.76-4.47-1.12-1.91-1.69-4.15-1.69-6.71v-8.16c0-2.56.56-4.8,1.69-6.71,1.12-1.91,2.71-3.4,4.76-4.47,2.05-1.06,4.46-1.6,7.22-1.6s5.1.53,7.13,1.6c2.03,1.06,3.61,2.55,4.73,4.47,1.12,1.91,1.69,4.15,1.69,6.71v5.86h-20.05v2.31c0,2.29.55,4.01,1.66,5.18,1.1,1.16,2.74,1.75,4.91,1.75,1.66,0,3-.29,4.02-.86,1.02-.57,1.68-1.41,1.95-2.51h7.28c-.55,2.8-2.04,5.04-4.47,6.71-2.43,1.68-5.37,2.51-8.84,2.51Zm6.39-19.23v-1.77c0-2.25-.53-3.97-1.6-5.18-1.06-1.2-2.66-1.8-4.79-1.8s-3.75.61-4.85,1.83c-1.1,1.22-1.66,2.96-1.66,5.21v1.24l13.43-.12-.53.59Z"/>
          <path class="cls-1" d="m153.19,59.12c-2.76,0-5.16-.52-7.19-1.57-2.03-1.04-3.61-2.52-4.73-4.44-1.12-1.91-1.69-4.17-1.69-6.77v-8.04c0-2.6.56-4.86,1.69-6.77,1.12-1.91,2.7-3.39,4.73-4.44,2.03-1.04,4.43-1.57,7.19-1.57s5.21.52,7.22,1.57c2.01,1.05,3.58,2.52,4.7,4.44,1.12,1.91,1.69,4.15,1.69,6.71v8.1c0,2.6-.56,4.86-1.69,6.77-1.12,1.91-2.69,3.39-4.7,4.44-2.01,1.04-4.42,1.57-7.22,1.57Zm0-6.45c1.97,0,3.5-.54,4.58-1.63,1.08-1.08,1.63-2.65,1.63-4.7v-8.04c0-2.09-.54-3.67-1.63-4.73-1.09-1.06-2.61-1.6-4.58-1.6s-3.45.53-4.55,1.6c-1.1,1.06-1.66,2.64-1.66,4.73v8.04c0,2.05.55,3.62,1.66,4.7,1.1,1.08,2.62,1.63,4.55,1.63Z"/>
        </g>
      </g>
      <g>
        <path class="cls-1" d="m170.82,58.35l3.65-13.95h7.31l-5.94,13.95h-5.02Zm6.17-22.6c-1.13,0-2.05-.36-2.76-1.08-.72-.72-1.07-1.62-1.07-2.69s.37-1.97,1.1-2.69,1.64-1.08,2.74-1.08h.91c1.1,0,2.01.36,2.74,1.08s1.1,1.62,1.1,2.69-.36,1.97-1.07,2.69c-.72.72-1.64,1.08-2.76,1.08h-.91Z"/>
        <path class="cls-1" d="m193.25,29.1c-1.91-2.09-4.47-3.14-7.66-3.14-2.72,0-4.86.74-6.42,2.21-.17.16-.33.33-.48.51l1.41,4.11c.79-.36,1.71-.55,2.77-.55,1.85,0,3.29.52,4.32,1.57,1.02,1.05,1.54,2.54,1.54,4.47v20.22h7.39v-20.97c0-3.52-.96-6.33-2.87-8.42Z"/>
      </g>
    </g>
  </g>
</svg>